<svg width="120" height="120" viewBox="0 0 120 120" xmlns="http://www.w3.org/2000/svg">
  <!-- Geometric representation of intelligent sampling -->
  <defs>
    <linearGradient id="primaryGradient" x1="0%" y1="0%" x2="100%" y2="100%">
      <stop offset="0%" style="stop-color:#0052CC;stop-opacity:1" />
      <stop offset="100%" style="stop-color:#00B8D9;stop-opacity:1" />
    </linearGradient>
  </defs>
  
  <!-- Main processor hexagon -->
  <polygon points="60,20 85,35 85,65 60,80 35,65 35,35" 
           fill="url(#primaryGradient)" 
           stroke="none"/>
  
  <!-- Inner processing core -->
  <polygon points="60,35 75,42.5 75,57.5 60,65 45,57.5 45,42.5" 
           fill="#FFFFFF" 
           opacity="0.9"/>
  
  <!-- Data input nodes (many small elements) -->
  <circle cx="15" cy="25" r="2.5" fill="#0052CC" opacity="0.6"/>
  <circle cx="15" cy="40" r="2.5" fill="#0052CC" opacity="0.8"/>
  <circle cx="15" cy="55" r="2.5" fill="#0052CC" opacity="0.7"/>
  <circle cx="15" cy="70" r="2.5" fill="#0052CC" opacity="0.9"/>
  <circle cx="15" cy="85" r="2.5" fill="#0052CC" opacity="0.5"/>
  
  <!-- Connection lines to processor -->
  <line x1="17.5" y1="40" x2="35" y2="45" stroke="#00B8D9" stroke-width="1.5" opacity="0.6"/>
  <line x1="17.5" y1="55" x2="35" y2="55" stroke="#00B8D9" stroke-width="1.5" opacity="0.6"/>
  <line x1="17.5" y1="70" x2="35" y2="60" stroke="#00B8D9" stroke-width="1.5" opacity="0.6"/>
  
  <!-- Sampled output (fewer, highlighted elements) -->
  <rect x="95" y="45" width="6" height="6" rx="1" fill="#FF8B00"/>
  <rect x="95" y="60" width="6" height="6" rx="1" fill="#FF8B00"/>
  
  <!-- Output connection lines -->
  <line x1="85" y1="50" x2="95" y2="48" stroke="#FF8B00" stroke-width="2"/>
  <line x1="85" y1="60" x2="95" y2="63" stroke="#FF8B00" stroke-width="2"/>
  
  <!-- Central processing indicator -->
  <circle cx="60" cy="50" r="3" fill="#FF8B00" opacity="0.8"/>
</svg>